<svg width="225" height="232" viewBox="0 0 225 232" fill="none" xmlns="http://www.w3.org/2000/svg">
<g filter="url(#filter0_d_3_18)">
<path fill-rule="evenodd" clip-rule="evenodd" d="M23.4769 89.1238C22.672 93.9629 22.2532 98.9325 22.2532 104C22.2532 142.625 46.5846 175.567 80.7563 188.335L88.1062 201.065C44.5434 190.264 12.2532 150.903 12.2532 104C12.2532 94.4177 13.6009 85.1501 16.1173 76.3766L23.4769 89.1238ZM169.506 34.5556C153.948 21.7142 134.002 14 112.253 14C90.5047 14 70.5581 21.7142 55.0001 34.5556H40.2984C58.4843 15.7164 84.0005 4 112.253 4C140.506 4 166.022 15.7164 184.208 34.5556H169.506ZM143.75 188.335C177.922 175.567 202.253 142.625 202.253 104C202.253 98.9325 201.834 93.9629 201.029 89.1238L208.389 76.3766C210.905 85.1501 212.253 94.4177 212.253 104C212.253 150.903 179.963 190.264 136.4 201.065L143.75 188.335Z" fill="white"/>
</g>
<g filter="url(#filter1_d_3_18)">
<path fill-rule="evenodd" clip-rule="evenodd" d="M4 40.5L112.253 228L220.506 40.5H4ZM25.6506 53L112.253 203L198.856 53H25.6506Z" fill="white"/>
</g>
<path d="M133.038 91L112.253 127L91.4686 91H133.038Z" fill="black" stroke="white"/>
<path d="M106.253 118L112.253 228L118.253 118H106.253Z" fill="black"/>
<path d="M122.253 90.5L220.753 40.5L128.253 100L122.253 90.5Z" fill="black"/>
<path d="M100.253 90.5L4.25317 40.5L95.2532 98.5L100.253 90.5Z" fill="black"/>
<path d="M106.253 118L112.253 228L118.253 118H106.253Z" stroke="white" stroke-linecap="round" stroke-linejoin="round"/>
<path d="M122.253 90.5L220.753 40.5L128.253 100L122.253 90.5Z" stroke="white" stroke-linecap="round" stroke-linejoin="round"/>
<path d="M100.253 90.5L4.25317 40.5L95.2532 98.5L100.253 90.5Z" stroke="white" stroke-linecap="round" stroke-linejoin="round"/>
<defs>
<filter id="filter0_d_3_18" x="8.25317" y="0" width="208" height="205.065" filterUnits="userSpaceOnUse" color-interpolation-filters="sRGB">
<feFlood flood-opacity="0" result="BackgroundImageFix"/>
<feColorMatrix in="SourceAlpha" type="matrix" values="0 0 0 0 0 0 0 0 0 0 0 0 0 0 0 0 0 0 127 0" result="hardAlpha"/>
<feOffset/>
<feGaussianBlur stdDeviation="2"/>
<feComposite in2="hardAlpha" operator="out"/>
<feColorMatrix type="matrix" values="0 0 0 0 1 0 0 0 0 1 0 0 0 0 1 0 0 0 1 0"/>
<feBlend mode="normal" in2="BackgroundImageFix" result="effect1_dropShadow_3_18"/>
<feBlend mode="normal" in="SourceGraphic" in2="effect1_dropShadow_3_18" result="shape"/>
</filter>
<filter id="filter1_d_3_18" x="0" y="36.5" width="224.506" height="195.5" filterUnits="userSpaceOnUse" color-interpolation-filters="sRGB">
<feFlood flood-opacity="0" result="BackgroundImageFix"/>
<feColorMatrix in="SourceAlpha" type="matrix" values="0 0 0 0 0 0 0 0 0 0 0 0 0 0 0 0 0 0 127 0" result="hardAlpha"/>
<feOffset/>
<feGaussianBlur stdDeviation="2"/>
<feComposite in2="hardAlpha" operator="out"/>
<feColorMatrix type="matrix" values="0 0 0 0 1 0 0 0 0 1 0 0 0 0 1 0 0 0 1 0"/>
<feBlend mode="normal" in2="BackgroundImageFix" result="effect1_dropShadow_3_18"/>
<feBlend mode="normal" in="SourceGraphic" in2="effect1_dropShadow_3_18" result="shape"/>
</filter>
</defs>
</svg>
